<svg xmlns="http://www.w3.org/2000/svg" width="321.366" height="236.775" viewBox="0 0 321.366 236.775"><g transform="translate(0 -0.001)"><rect width="135.082" height="3.962" transform="translate(186.284 87.675)" fill="#e6e6e6"/><rect width="34.221" height="34.221" transform="translate(197.451 54.535)" fill="#e6e6e6"/><rect width="20.532" height="20.532" transform="translate(204.295 61.379)" fill="#ccc"/><rect width="8.645" height="34.221" transform="translate(274.177 54.535)" fill="#e6e6e6"/><rect width="8.645" height="3.962" transform="translate(274.177 59.938)" fill="#ccc"/><rect width="8.645" height="3.962" transform="translate(274.177 77.229)" fill="#ccc"/><rect width="8.645" height="34.221" transform="translate(260.85 54.535)" fill="#e6e6e6"/><rect width="8.645" height="3.962" transform="translate(260.85 59.938)" fill="#ccc"/><rect width="8.645" height="3.962" transform="translate(260.85 77.229)" fill="#ccc"/><rect width="8.645" height="34.221" transform="matrix(0.896, -0.444, 0.444, 0.896, 282.524, 58.23)" fill="#e6e6e6"/><rect width="8.645" height="3.962" transform="matrix(0.896, -0.444, 0.444, 0.896, 284.921, 63.072)" fill="#ccc"/><rect width="8.645" height="3.962" transform="matrix(0.896, -0.444, 0.444, 0.896, 292.593, 78.567)" fill="#ccc"/><path d="M511.665,170.382l4.354,7.541,4.354,7.541H502.958l4.354-7.541Z" transform="translate(-301.427 -102.111)" fill="#e6e6e6"/><path d="M530.544,173.978l4.354,7.541,4.354,7.541H521.837l4.354-7.541Z" transform="translate(-312.741 -104.266)" fill="#e6e6e6"/><circle cx="2.522" cy="2.522" r="2.522" transform="translate(218.344 62.46)" fill="#e6e6e6"/><rect width="135.082" height="3.962" transform="translate(321.366 37.245) rotate(180)" fill="#e6e6e6"/><rect width="34.221" height="34.221" transform="translate(310.199 34.363) rotate(180)" fill="#e6e6e6"/><rect width="20.532" height="20.532" transform="translate(303.355 27.518) rotate(180)" fill="#ccc"/><rect width="8.645" height="34.221" transform="translate(233.473 34.363) rotate(180)" fill="#e6e6e6"/><rect width="8.645" height="3.962" transform="translate(233.473 9.508) rotate(180)" fill="#ccc"/><rect width="8.645" height="3.962" transform="translate(233.473 26.798) rotate(180)" fill="#ccc"/><rect width="8.645" height="34.221" transform="translate(246.801 34.363) rotate(180)" fill="#e6e6e6"/><rect width="8.645" height="3.962" transform="translate(246.801 9.508) rotate(180)" fill="#ccc"/><rect width="8.645" height="3.962" transform="translate(246.801 26.798) rotate(180)" fill="#ccc"/><rect width="8.645" height="34.221" transform="matrix(-0.896, -0.444, 0.444, -0.896, 209.943, 34.505)" fill="#e6e6e6"/><rect width="8.645" height="3.962" transform="matrix(-0.896, -0.444, 0.444, -0.896, 220.971, 12.23)" fill="#ccc"/><rect width="8.645" height="3.962" transform="matrix(-0.896, -0.444, 0.444, -0.896, 213.299, 27.725)" fill="#ccc"/><path d="M729.221,34.634l-4.354,7.541-4.354,7.541h17.414l-4.354-7.541Z" transform="translate(-431.81 -20.756)" fill="#e6e6e6"/><path d="M710.342,38.23l-4.354,7.541-4.354,7.541h17.414L714.7,45.771Z" transform="translate(-420.495 -22.911)" fill="#e6e6e6"/><circle cx="2.522" cy="2.522" r="2.522" transform="translate(284.264 8.067)" fill="#e6e6e6"/><rect width="135.082" height="3.962" transform="translate(321.366 146.031) rotate(180)" fill="#e6e6e6"/><rect width="34.221" height="34.221" transform="translate(310.199 143.149) rotate(180)" fill="#e6e6e6"/><rect width="20.532" height="20.532" transform="translate(303.355 136.305) rotate(180)" fill="#ccc"/><rect width="8.645" height="34.221" transform="translate(233.473 143.149) rotate(180)" fill="#e6e6e6"/><rect width="8.645" height="3.962" transform="translate(233.473 118.294) rotate(180)" fill="#ccc"/><rect width="8.645" height="3.962" transform="translate(233.473 135.584) rotate(180)" fill="#ccc"/><rect width="8.645" height="34.221" transform="translate(246.801 143.149) rotate(180)" fill="#e6e6e6"/><rect width="8.645" height="3.962" transform="translate(246.801 118.294) rotate(180)" fill="#ccc"/><rect width="8.645" height="3.962" transform="translate(246.801 135.584) rotate(180)" fill="#ccc"/><rect width="8.645" height="34.221" transform="matrix(-0.896, -0.444, 0.444, -0.896, 209.943, 143.291)" fill="#e6e6e6"/><rect width="8.645" height="3.962" transform="matrix(-0.896, -0.444, 0.444, -0.896, 220.971, 121.016)" fill="#ccc"/><rect width="8.645" height="3.962" transform="matrix(-0.896, -0.444, 0.444, -0.896, 213.299, 136.511)" fill="#ccc"/><path d="M729.221,306.129l-4.354,7.541-4.354,7.541h17.414l-4.354-7.541Z" transform="translate(-431.81 -183.465)" fill="#e6e6e6"/><path d="M710.342,309.725l-4.354,7.541-4.354,7.541h17.414l-4.354-7.541Z" transform="translate(-420.495 -185.62)" fill="#e6e6e6"/><circle cx="2.522" cy="2.522" r="2.522" transform="translate(284.264 116.853)" fill="#e6e6e6"/><ellipse cx="159.127" cy="11.302" rx="159.127" ry="11.302" transform="translate(0 214.173)" fill="#f3e6ff"/><path d="M780.61,681.661c-25.947-4.618-54.321-3.85-84.084,0,13.566-11.452,25.273-22.9,11.708-34.357,26.461,5.459,30.168,4.906,59.6,0C761.011,658.756,773.783,670.209,780.61,681.661Z" transform="translate(-497.166 -449.858)" fill="#b383e1"/><path d="M780.61,681.661c-25.947-4.618-54.321-3.85-84.084,0,13.566-11.452,25.273-22.9,11.708-34.357,26.461,5.459,30.168,4.906,59.6,0C761.011,658.756,773.783,670.209,780.61,681.661Z" transform="translate(-497.166 -449.858)" opacity="0.2"/><path d="M783.747,679.836c-22.041-3.686-46.143-3.073-71.426,0,11.523-9.141,21.469-18.283,9.946-27.424,22.478,4.358,25.626,3.917,50.631,0C767.1,661.553,777.948,670.695,783.747,679.836Z" transform="translate(-506.632 -452.919)" fill="#b383e1"/><circle cx="11.744" cy="11.744" r="11.744" transform="translate(256.976 188.7)" fill="#2f2e41"/><path d="M517.983,466.249l8.137,1.356,4.069,11.754-11.754,7.233-13.562-20.343h13.11Z" transform="translate(-302.574 -279.426)" fill="#a0616a"/><circle cx="18.987" cy="18.987" r="18.987" transform="translate(219.477 166.932)" fill="#a0616a"/><path d="M428.462,445.919s-46.11,4.973-54.248,4.069a100.754,100.754,0,0,1-11.754-1.808s-5.425,7.233-2.712,10.4a19.563,19.563,0,0,0,5.425,4.521s4.973-1.356,8.589,0,40.234,7.233,46.562,1.808S428.462,445.919,428.462,445.919Z" transform="translate(-294.877 -329.166)" fill="#2f2e41"/><path d="M438.848,571.821s-30.288-8.589-35.713-46.562v-3.616S397.142,532.156,395,534.3c-2.486,2.486-11.3,24.864-10.85,27.124a5.417,5.417,0,0,1,0,3.164l-13.11-1.356v-4.069s7.007-21.021,7.459-25.994,17.4-39.556,17.4-39.556,6.329-13.11,17.178,0,11.754,22.151,11.754,22.151l14.014,27.124Z" transform="translate(-302.098 -354.258)" fill="#2f2e41"/><path d="M333.134,434.126l-14.466-4.973s-13.562-9.945-10.4,0,17.631,31.645,21.7,29.384,8.962-7.871,7.871-8.682S329.518,443.167,333.134,434.126Z" transform="translate(-264.194 -316.469)" fill="#2f2e41"/><path d="M345.021,659.259l-11.678,5.7s-14.122,2.173-6.246,6.246,29.6,8.419,30.688,4.617.655-10.112-.487-9.944S348.28,666.863,345.021,659.259Z" transform="translate(-274.333 -457.022)" fill="#2f2e41"/><path d="M523.024,604.792s-5.877,25.316,4.069,30.74,79.564,6.329,84.988-3.617,2.712-9.945,2.712-9.945L600.327,605.7l11.754-.9a4.22,4.22,0,0,0-4.069-4.069c-4.069-.452-16.726-4.973-27.576-1.808s-17.178-6.329-17.178-6.329Z" transform="translate(-392.151 -417.065)" fill="#575a89"/><path d="M295.942,267.688l-7.685,42.042,52.892-6.329,9.493-37.974Z" transform="translate(-172.755 -159.073)" fill="#3f3d56"/><path d="M301.92,271.637l-6.329,37.521,48.145-5.651L353,269.377Z" transform="translate(-177.15 -161.439)" fill="#fff"/><path d="M288.713,376.445l-1.808-.452L286,377.8l14.466,40.234,1.36-.52.448-2.644Z" transform="translate(-171.403 -225.335)" fill="#b3b3b3"/><path d="M288.257,366.075l14.466,42.042,54.7-8.137L341.149,360.2Z" transform="translate(-172.755 -215.869)" fill="#d0cde1"/><path d="M306.309,364.719v2.26l40.234-4.521-.452-2.26Z" transform="translate(-183.573 -215.869)" fill="#3f3d56"/><path d="M308.565,376.677l6.329,17.63,41.138-4.973L348.8,372.608Z" transform="translate(-184.925 -223.306)" fill="#3f3d56"/><path d="M608.854,571.594l-1.356-3.616s-10.4-18.083-15.822-14.466,11.3,21.247,11.3,21.247H608.4Z" transform="translate(-433.679 -393.36)" fill="#a0616a"/><path d="M546.857,574.292l-1.356-5.425s-3.617-16.726,2.712-15.822,8.137,16.726,8.137,16.726l-.452,3.617Z" transform="translate(-406.039 -393.346)" fill="#a0616a"/><path d="M558.517,599.6s-11.754-1.808-12.206.9-2.712,43.4,8.589,44.755,67.358,7.233,61.481-6.781-14.918-12.206-14.918-12.206l-38.425,4.069Z" transform="translate(-406.85 -420.914)" fill="#575a89"/><path d="M437.328,446.407l-11.979-8.363-7.911,6.1L427.383,455Z" transform="translate(-250.173 -262.523)" fill="#575a89"/><path d="M386.976,479.224l1.808,17.178,31.193-1.808-27.124-.452Z" transform="translate(-231.918 -287.202)" opacity="0.2"/><circle cx="22.603" cy="22.603" r="22.603" transform="translate(225.233 166.766)" fill="#2f2e41"/><path d="M328.309,290.833l28.028-.976,2.712-10.326-28.932.873Z" transform="translate(-196.758 -167.525)" fill="#b383e1"/><path d="M310.258,317.67l42.494-1.356.452-1.808L310.71,316Z" transform="translate(-185.94 -188.485)" fill="#e6e6e6"/><path d="M308,328.952,350.5,327.6l.452-1.808-42.494,1.5Z" transform="translate(-184.587 -195.246)" fill="#e6e6e6"/><path d="M306.873,337.977l42.494-1.356.452-1.808-42.494,1.5Z" transform="translate(-183.911 -200.656)" fill="#e6e6e6"/></g></svg>