<svg xmlns="http://www.w3.org/2000/svg" xmlns:xlink="http://www.w3.org/1999/xlink" width="40" height="54.545" viewBox="0 0 40 54.545">
  <defs>
    <linearGradient id="linear-gradient" x1="0.5" y1="1" x2="0.5" gradientUnits="objectBoundingBox">
      <stop offset="0" stop-color="#12c2e9"/>
      <stop offset="0.5" stop-color="#c471ed"/>
      <stop offset="1" stop-color="#f64f59"/>
    </linearGradient>
  </defs>
  <path id="Logo-SVG" d="M119.847,16.4a.909.909,0,0,0-.756-.4H107.272a.909.909,0,0,0-.839.559L100,32,93.566,16.559A.909.909,0,0,0,92.727,16H80.909a.909.909,0,0,0-.839,1.259L88.1,36.536a19.091,19.091,0,1,0,23.795,0l8.033-19.277A.909.909,0,0,0,119.847,16.4ZM105.159,33.072l6.356-15.254h2.576l-6.684,16.041A18.941,18.941,0,0,0,105.159,33.072Zm2.72-15.254h1.667L103.361,32.66q-.779-.139-1.578-.212ZM98.216,32.448q-.8.074-1.578.212L90.454,17.818h1.667Zm-5.624,1.412L85.909,17.818h2.576L94.84,33.072a18.941,18.941,0,0,0-2.248.787ZM82.272,17.818h1.667l7.012,16.83q-.685.37-1.336.794Zm35,33.636A17.273,17.273,0,1,1,100,34.182,17.292,17.292,0,0,1,117.272,51.454Zm-6.889-16.012q-.65-.423-1.336-.794l7.012-16.83h1.667ZM85.454,51.454A14.545,14.545,0,1,0,100,36.909,14.545,14.545,0,0,0,85.454,51.454Zm27.273,0A12.727,12.727,0,1,1,100,38.727,12.727,12.727,0,0,1,112.727,51.454ZM99.178,41.973,96.931,46.7l-5.249.789a.909.909,0,0,0-.524,1.525L94.9,52.954l-1.5,5.534a.909.909,0,0,0,1.346,1.017L100,56.343l5.259,3.163a.909.909,0,0,0,1.346-1.017l-1.5-5.535,3.739-3.935a.909.909,0,0,0-.524-1.525l-5.249-.789-2.247-4.73a.909.909,0,0,0-1.643,0Zm2.455,5.948a.909.909,0,0,0,.686.509l4,.6-2.889,3.04a.909.909,0,0,0-.218.864l1.044,3.846L100.468,54.5a.909.909,0,0,0-.937,0l-3.789,2.279,1.044-3.846a.909.909,0,0,0-.218-.864l-2.889-3.041,4-.6a.909.909,0,0,0,.686-.509L100,44.482Z" transform="translate(-80 -16)" fill="url(#linear-gradient)"/>
</svg>
