<svg xmlns="http://www.w3.org/2000/svg" width="50.482" height="50.479" viewBox="0 0 50.482 50.479"><g transform="translate(0 -0.016)"><path d="M25.56,233.014a37.416,37.416,0,0,1-4.939,10.264,38.512,38.512,0,0,1-19.9,15.186v0a1.051,1.051,0,0,0,.333,2.049,1.022,1.022,0,0,0,.331-.055v0A40.349,40.349,0,0,0,14.4,253.285a41.427,41.427,0,0,0,8.014-8.905A38.736,38.736,0,0,0,27.6,233.536Z" transform="translate(0 -210.019)" fill="#511e82"/><g transform="translate(3.18 7.091)"><path d="M34.517,147.717c-6.416,6.207,2.817,11.963,2.817,11.963s-5.723,9.255,2.779,11.973S56.85,155.117,56.85,155.117,40.933,141.512,34.517,147.717Z" transform="translate(-32.249 -138.764)" fill="#8030cd"/><path d="M284.754,95.955c6.416-6.2-2.818-11.963-2.818-11.963s5.723-9.254-2.779-11.971S262.42,88.556,262.42,88.556,278.338,102.161,284.754,95.955Z" transform="translate(-239.72 -71.757)" fill="#8030cd"/></g><g transform="translate(10.25 0.016)"><path d="M179.95,260.941c6.207,6.416,11.963-2.818,11.963-2.818s9.255,5.723,11.973-2.779-16.535-15.816-16.535-15.816S173.745,254.524,179.95,260.941Z" transform="translate(-170.991 -215.907)" fill="#893cd3"/><path d="M128.133,2.284C121.928-4.132,116.17,5.1,116.17,5.1S106.916-.621,104.2,7.881s16.09,15.756,16.09,15.756S134.34,8.7,128.133,2.284Z" transform="translate(-103.93 -0.016)" fill="#893cd3"/></g></g></svg>