<svg xmlns="http://www.w3.org/2000/svg" viewBox="0 0 512 512"><g fill="#e5f9f6"><path d="M353.145 507.299l-63.234-21.986a30.335 30.335 0 01-20.373-28.653V257.516h-27.079V456.66a30.336 30.336 0 01-20.373 28.653l-63.233 21.986c-2.459 1.036-1.719 4.701.95 4.701h192.393c2.668 0 3.409-3.665.949-4.701z"/><path d="M233.77 262.793L45.046 55.17c-4.537-4.992-.996-12.998 5.75-12.998h410.407c6.746 0 10.288 8.006 5.75 12.998L278.228 262.793c-11.919 13.112-32.539 13.112-44.458 0z"/></g><path d="M461.202 42.173h-48.271l-189.85 208.861 10.689 11.759c11.919 13.112 32.538 13.112 44.457 0L466.953 55.17c4.537-4.991.995-12.997-5.751-12.997z" fill="#d6e5e2"/><path d="M94.184 109.229l139.587 153.564c11.918 13.111 32.537 13.112 44.456.001l139.588-153.565H94.184z" fill="#cdeae0"/><path d="M247.693 271.453c.249.071.496.149.746.213.704.182 1.414.329 2.126.459.792.145 1.588.267 2.387.348a30.66 30.66 0 002.534.141c.171.003.341.013.512.013.809 0 1.617-.042 2.423-.106.208-.017.416-.026.624-.047a29.884 29.884 0 0019.181-9.679L417.814 109.23h-65.835L223.081 251.033l10.689 11.759c.325.358.659.701.997 1.039.049.049.096.103.145.152a29.828 29.828 0 0012.049 7.26c.243.077.488.14.732.21z" fill="#b6d1c6"/><path d="M232.675 209.877a7.617 7.617 0 01-5.525-12.856L411.694 2.376a7.615 7.615 0 1111.053 10.48L238.204 207.501a7.6 7.6 0 01-5.529 2.376z" fill="#772424"/><ellipse transform="rotate(-136.527 264.952 168.208)" cx="264.952" cy="168.207" rx="31.23" ry="27.755" fill="#60a83f"/><g fill="#7dc959"><ellipse transform="rotate(-136.527 303.147 127.92)" cx="303.146" cy="127.92" rx="31.23" ry="27.755"/><ellipse transform="rotate(-136.527 341.34 87.63)" cx="341.338" cy="87.629" rx="31.23" ry="27.755"/></g><path d="M284.056 148.069c12.515 11.865 31.209 12.466 41.756 1.342 10.129-10.683 9.052-28.293-2.134-40.181h-45.457c-7.944 11.255-5.687 27.915 5.835 38.839z" fill="#60a83f"/><path d="M353.145 507.299l-63.234-21.986a30.343 30.343 0 01-4.672-2.092c-15.149-2.422-43.334-2.422-58.483 0a30.44 30.44 0 01-4.672 2.092l-63.233 21.986c-2.459 1.036-1.719 4.701.95 4.701h192.393c2.67 0 3.411-3.665.951-4.701z" fill="#d6e5e2"/></svg>