<svg xmlns="http://www.w3.org/2000/svg" viewBox="0 0 512.001 512.001"><path d="M429.223 341.378H320.209a8.586 8.586 0 00-8.405 6.813c-4.196 19.866-15.782 78.048-13.659 105.37 1.926 24.791 14.46 41.193 23.825 50.148a29.904 29.904 0 0020.67 8.292h64.152a29.902 29.902 0 0020.67-8.292c9.365-8.955 21.9-25.357 23.825-50.148 2.122-27.323-9.463-85.504-13.659-105.37a8.586 8.586 0 00-8.405-6.813z" fill="#dfede7"/><path d="M437.628 348.19a8.586 8.586 0 00-8.405-6.813h-50.757s17.714 78.937 15.132 112.183c-2.191 28.207-18.116 45.555-27.48 53.428a21.326 21.326 0 01-13.73 5.012h54.405a29.902 29.902 0 0020.67-8.292c9.365-8.955 21.899-25.357 23.825-50.148 2.121-27.322-9.464-85.504-13.66-105.37z" fill="#d7e0dc"/><path d="M303.959 389.647c-3.785 22.797-7.022 48.356-5.814 63.914 1.925 24.791 14.46 41.193 23.825 50.148a29.904 29.904 0 0020.67 8.292h64.152a29.902 29.902 0 0020.67-8.292c9.365-8.955 21.899-25.357 23.825-50.148 1.208-15.558-2.029-41.116-5.814-63.914H303.959z" fill="#fd9727"/><path d="M451.482 449.696c.021-.676.04-1.356.049-2.06.005-.404.004-.822.004-1.235.001-.663 0-1.332-.009-2.017a172.074 172.074 0 00-.246-7.059c-.024-.452-.047-.902-.075-1.36-.05-.837-.108-1.687-.169-2.542-.027-.389-.051-.773-.081-1.166a276.213 276.213 0 00-.31-3.802 335.18 335.18 0 00-.381-4.015l-.084-.802a423.807 423.807 0 00-.346-3.24c-.043-.385-.089-.773-.133-1.16-.113-.984-.228-1.972-.349-2.965-.05-.416-.102-.833-.154-1.251a574.57 574.57 0 00-.377-2.969l-.157-1.199a524.769 524.769 0 00-.565-4.141 583.69 583.69 0 00-.529-3.686l-.067-.461a721.762 721.762 0 00-2.029-12.92h-57.689c3.785 22.797 7.021 48.357 5.813 63.914-2.191 28.207-18.116 45.555-27.48 53.428a21.326 21.326 0 01-13.73 5.012h54.405a29.902 29.902 0 0020.67-8.292c9.365-8.955 21.899-25.357 23.825-50.148.071-.918.125-1.877.166-2.863.013-.325.018-.669.028-1.001z" fill="#e57f23"/><path d="M223.225 161.622c-17.749-3.702-30.468-19.346-30.468-37.477V77.266a5.833 5.833 0 015.833-5.833 5.833 5.833 0 005.833-5.833V24.677h-87.195V65.6a5.833 5.833 0 005.833 5.833 5.833 5.833 0 015.833 5.833v46.879c0 18.131-12.719 33.776-30.468 37.477-22.518 4.696-38.478 24.79-37.957 47.786l6.41 282.46c.253 11.127 9.345 20.015 20.475 20.015h146.942c11.13 0 20.222-8.888 20.475-20.015l6.41-282.46c.523-22.996-15.438-43.09-37.956-47.786z" fill="#dfede7"/><path d="M204.423 41.832h-87.195V5.216A5.216 5.216 0 01122.444 0h76.763a5.216 5.216 0 015.216 5.216v36.616z" fill="#4a4256"/><path d="M98.427 161.622c-22.518 4.696-38.479 24.79-37.957 47.787l6.41 282.46c.253 11.127 9.345 20.015 20.475 20.015h146.942c11.13 0 20.222-8.888 20.475-20.015l6.41-282.46c.522-22.996-15.439-43.09-37.957-47.786-15.23-3.176-26.748-15.149-29.713-29.938h-65.373c-2.964 14.788-14.482 26.761-29.712 29.937z" fill="#fd9727"/><path d="M307.358 484.733c4.527 8.239 9.96 14.527 14.612 18.975A29.904 29.904 0 00342.64 512h64.152a29.902 29.902 0 0020.67-8.292c4.652-4.448 10.085-10.736 14.612-18.975-1.336 1.173-133.379 1.173-134.716 0z" fill="#d7e0dc"/><path d="M223.225 161.622a38.898 38.898 0 01-2.555-.634c-.136-.038-.272-.074-.407-.113a37.96 37.96 0 01-2.363-.778c-.146-.053-.29-.108-.435-.163a38.288 38.288 0 01-2.315-.959c-.077-.035-.152-.073-.228-.109a38.03 38.03 0 01-2.219-1.118l-.18-.095a37.656 37.656 0 01-2.165-1.298l-.315-.203a38.049 38.049 0 01-2.044-1.438l-.219-.169a38.227 38.227 0 01-3.938-3.468l-.112-.111a38.083 38.083 0 01-1.884-2.068 38.332 38.332 0 01-4.591-6.76 38.156 38.156 0 01-3.743-10.453h-45.895c.768 15.508 4.592 29.876 19.879 33.064 22.518 4.696 37.437 21.665 36.915 44.661l-7.312 302.475h37.197c1.391 0 2.751-.139 4.065-.404 9.2-1.853 16.189-9.876 16.41-19.612l6.41-282.46c.522-22.997-15.438-43.091-37.956-47.787z" fill="#e57f23"/><path d="M217.93 403.411H103.722a6.228 6.228 0 01-6.228-6.228V269.125a6.228 6.228 0 016.228-6.228H217.93a6.228 6.228 0 016.228 6.228v128.059a6.23 6.23 0 01-6.228 6.227z" fill="#ffe5b8"/><circle cx="160.821" cy="262.9" r="38.466" fill="#fc502a"/><g fill="#fff"><path d="M192.774 346.523h-63.895a7.813 7.813 0 010-15.626h63.895c4.316 0 7.813 3.498 7.813 7.813s-3.497 7.813-7.813 7.813zM192.774 378.013h-63.895a7.813 7.813 0 010-15.626h63.895c4.316 0 7.813 3.498 7.813 7.813s-3.497 7.813-7.813 7.813z"/></g><path d="M160.826 480.976c-34.935 0-67.379-1.101-94.26-2.986l.315 13.878c.253 11.127 9.345 20.015 20.475 20.015h146.942c11.13 0 20.222-8.888 20.475-20.015l.315-13.878c-26.883 1.885-59.327 2.986-94.262 2.986z" fill="#d7e0dc"/><g fill="#c9d1cd"><path d="M197.857 480.551l-.757 31.332h37.197c1.391 0 2.751-.139 4.065-.404a20.49 20.49 0 001.826-.462c.195-.059.384-.132.576-.196.398-.133.795-.269 1.182-.426.222-.09.438-.19.656-.287a20.68 20.68 0 001.031-.488 21.316 21.316 0 002.229-1.329c.312-.214.615-.44.914-.67.186-.143.374-.283.554-.432.318-.262.622-.54.923-.821.145-.135.296-.263.436-.402a20.68 20.68 0 002.36-2.787c.114-.161.215-.332.324-.496.229-.346.454-.694.662-1.054.118-.204.225-.414.336-.622.179-.336.353-.676.513-1.023.104-.226.202-.455.298-.685.145-.347.281-.698.407-1.055.084-.236.166-.474.241-.714.116-.369.216-.745.311-1.123.059-.236.122-.47.173-.709.089-.418.157-.843.221-1.27.031-.207.071-.41.096-.619.075-.639.126-1.286.141-1.942l.315-13.878c-17.09 1.199-36.434 2.079-57.23 2.562zM429.241 501.953c4.218-4.296 8.873-10.011 12.834-17.22-.607.532-28.155.823-58.182.872-5.699 10.057-12.7 17.115-17.776 21.383A21.333 21.333 0 01352.389 512h54.404a29.902 29.902 0 0020.67-8.292 78.143 78.143 0 001.776-1.752l.002-.003z"/></g><path d="M147.446 41.832v82.313c0 2.515.047 5.041.171 7.539h45.895v.002a38.283 38.283 0 01-.755-7.541V77.266a5.834 5.834 0 015.833-5.833 5.833 5.833 0 005.833-5.833V41.832h-56.977z" fill="#d7e0dc"/></svg>