<svg xmlns="http://www.w3.org/2000/svg" viewBox="0 0 511.986 511.986"><path d="M390.673 373.318c4.75-18.327 21.469-31.921 41.311-31.921 19.844 0 36.562 13.594 41.312 31.921h-82.623z" fill="#a0d468"/><path d="M431.983 330.742c-29.451 0-53.342 23.827-53.342 53.248h106.686c0-29.421-23.891-53.248-53.344-53.248zm-23.779 31.904c5.859-6.483 14.344-10.577 23.779-10.577 9.438 0 17.922 4.094 23.781 10.577h-47.56z" fill="#8cc153"/><path fill="#e6e9ed" d="M410.641 511.986h-85.31l-21.344-149.34h127.996z"/><g fill="#ffce54"><path d="M415.22 479.988l12.203-85.342H308.55l12.203 85.342zM239.99 170.652h-10.664l-31.999-21.328V0H90.658v149.324l-31.999 21.328H47.994c-11.781 0-21.335 9.562-21.335 21.343v298.648c0 11.781 9.554 21.343 21.335 21.343h191.995c11.781 0 21.335-9.562 21.335-21.343V191.995c.001-11.78-9.553-21.343-21.334-21.343z"/></g><path fill="#da4453" d="M26.66 255.993h234.67v192H26.66z"/><g fill="#434a54"><path d="M90.663 0h106.67v85.33H90.663zM207.991 351.991c0-5.891-4.773-10.672-10.664-10.672H90.658c-5.891 0-10.664 4.781-10.664 10.672s4.773 10.655 10.664 10.655h106.669c5.89 0 10.664-4.764 10.664-10.655zM165.327 383.99h-42.671c-5.89 0-10.664 4.766-10.664 10.656s4.773 10.672 10.664 10.672h42.671c5.891 0 10.664-4.781 10.664-10.672s-4.773-10.656-10.664-10.656z"/></g><path d="M197.326 266.649c0 29.468-23.882 53.343-53.334 53.343s-53.334-23.875-53.334-53.343c0-29.452 23.882-53.326 53.334-53.326 29.453 0 53.334 23.874 53.334 53.326z" fill="#ed5564"/><g fill="#f6bb42"><path d="M79.994 501.315c-5.891 0-10.664 4.781-10.664 10.671h21.328c0-5.889-4.774-10.671-10.664-10.671zM122.657 501.315c-5.89 0-10.664 4.781-10.664 10.671h21.335c0-5.889-4.781-10.671-10.671-10.671zM165.327 501.315c-5.891 0-10.671 4.781-10.671 10.671h21.335c0-5.889-4.773-10.671-10.664-10.671zM207.991 501.315c-5.891 0-10.664 4.781-10.664 10.671h21.328c-.001-5.889-4.774-10.671-10.664-10.671z"/></g><path fill="#fff" d="M410.641 362.646l-21.312 149.34h21.312l21.342-149.34zM239.99 170.652h-10.664l-31.999-21.328V0h-21.335v149.324l32 21.328h10.664c11.781 0 21.335 9.562 21.335 21.343v298.648c0 11.781-9.555 21.343-21.335 21.343h21.335c11.781 0 21.335-9.562 21.335-21.343V191.995c-.001-11.78-9.555-21.343-21.336-21.343z" opacity=".2"/></svg>