<svg xmlns="http://www.w3.org/2000/svg" viewBox="0 0 512 512"><path d="M244.713 470.806c-2.54-1.841-3.874-4.927-3.82-8.064l5.015-288.545a16.22 16.22 0 00-4.571-11.967l-29.421-30.287a24.019 24.019 0 01-6.79-16.735V.021h-50.968v115.188a24.02 24.02 0 01-6.79 16.735l-29.421 30.287a16.22 16.22 0 00-4.571 11.967l5.015 288.545c.055 3.137-1.279 6.223-3.82 8.064a6.676 6.676 0 00-2.758 5.609l.672 24.854c.161 5.973 5.05 10.73 11.024 10.73h112.266c5.975 0 10.863-4.758 11.024-10.73l.672-24.854a6.678 6.678 0 00-2.758-5.61z" fill="#cdeae0"/><path d="M244.713 470.806c-2.54-1.841-3.874-4.927-3.82-8.064l5.015-288.545a16.22 16.22 0 00-4.571-11.967l-29.421-30.287a24.019 24.019 0 01-6.79-16.735V.021h-50.968v115.188c0 3.986-1 7.867-2.848 11.322a23.973 23.973 0 003.942 5.412l29.421 30.287a16.22 16.22 0 014.571 11.967l-5.015 288.545c-.055 3.137 1.279 6.223 3.82 8.064a6.676 6.676 0 012.758 5.609L189.845 512h45.93c5.975 0 10.863-4.758 11.024-10.73l.672-24.854a6.678 6.678 0 00-2.758-5.61z" fill="#b6d1c6"/><path d="M203.648 99.203h-48.01a4.213 4.213 0 01-4.213-4.213V4.213A4.213 4.213 0 01155.638 0h48.01a4.213 4.213 0 014.213 4.213V94.99a4.214 4.214 0 01-4.213 4.213z" fill="#e52d15"/><path d="M148.426 225.857c20.202-11.57 42.219-11.57 62.429.025 4.014 2.302 9.037-.455 9.228-5.078l.452-10.993c.174-4.227-2.215-8.178-6.083-9.889-22.531-9.962-47.07-9.975-69.613-.024-3.872 1.709-6.263 5.663-6.089 9.892l.452 10.988c.19 4.62 5.211 7.378 9.224 5.079z" fill="#fc502a"/><g fill="#fff"><path d="M208.49 433.248h-57.695a7.728 7.728 0 010-15.454h57.695a7.728 7.728 0 010 15.454zM208.49 457.115h-57.695a7.728 7.728 0 010-15.454h57.695a7.728 7.728 0 010 15.454z"/></g><path d="M209.048 324.555h-58.81a4.94 4.94 0 01-4.94-4.851l-.849-46.267a4.941 4.941 0 014.94-5.032h60.508a4.941 4.941 0 014.94 5.032l-.849 46.267a4.941 4.941 0 01-4.94 4.851z" fill="#fc502a"/><path fill="#4a4256" d="M151.425 19.253v15.454h56.435V19.253z"/><path d="M379.562 511.871h-70.583a11.081 11.081 0 01-11.056-10.331l-9.555-140.832a6.36 6.36 0 016.345-6.79h99.116a6.36 6.36 0 016.345 6.79l-9.555 140.832a11.083 11.083 0 01-11.057 10.331z" fill="#e5f9f6"/><path d="M393.828 353.917h-49.112L333.999 511.87h45.563a11.081 11.081 0 0011.056-10.331l9.555-140.832a6.36 6.36 0 00-6.345-6.79z" fill="#d6e5e2"/><path d="M289.864 382.765l8.059 118.774a11.081 11.081 0 0011.056 10.331h70.583a11.081 11.081 0 0011.056-10.331l8.059-118.774H289.864z" fill="#cdeae0"/><path d="M289.864 382.765l8.059 118.774a11.081 11.081 0 0011.056 10.331h70.583a11.081 11.081 0 0011.056-10.331l8.059-118.774H289.864z" fill="#cdeae0"/><path d="M342.759 382.765l-8.76 129.106h45.563a11.081 11.081 0 0011.056-10.331l8.059-118.774h-55.918v-.001z" fill="#b6d1c6"/><path d="M387.589 487.285h-86.636a8.85 8.85 0 01-4.064-.983l1.034 15.237a11.081 11.081 0 0011.056 10.331h70.583a11.081 11.081 0 0011.056-10.331l1.034-15.237a8.846 8.846 0 01-4.063.983z" fill="#dfede7"/><path d="M390.618 501.539l.21-3.089.824-12.147a8.847 8.847 0 01-4.064.983h-51.921l-1.668 24.586h45.563a11.083 11.083 0 0011.056-10.333z" fill="#d7e0dc"/><g fill="#e52d15"><path d="M214.452 199.921c-8.305-3.672-16.884-5.982-25.534-6.949l-.433 24.902c7.578 1.169 15.092 3.833 22.37 8.008 4.014 2.302 9.037-.455 9.228-5.078l.452-10.993c.175-4.227-2.214-8.179-6.083-9.89zM209.897 268.405h-22.29l-.976 56.149h22.417a4.94 4.94 0 004.94-4.851l.849-46.267a4.94 4.94 0 00-4.94-5.031z"/></g></svg>