<svg id="Flat" height="512" viewBox="0 0 512 512" width="512" xmlns="http://www.w3.org/2000/svg"><path d="m416 176v288a24.006 24.006 0 0 1 -24 24h-160a24.006 24.006 0 0 1 -24-24v-288l29.3-3.26a39.959 39.959 0 0 0 35.49-43.1c-.49-5.5-.79-11.42-.79-17.64 0-32 8-56 8-56v-16h64v16s8 24 8 56c0 6.22-.3 12.14-.79 17.64a39.959 39.959 0 0 0 35.49 43.1z" fill="#dc801f"/><path d="m352 112h-80a206.3 206.3 0 0 1 4-40 146.945 146.945 0 0 1 4-16v-16h64v16a146.945 146.945 0 0 1 4 16 206.3 206.3 0 0 1 4 40z" fill="#4e4e4f"/><path d="m208 216h208v208h-208z" fill="#4e4e4f"/><path d="m370.784 292.18c-15.134-13.013-36.011-20.18-58.784-20.18s-43.65 7.167-58.784 20.18l-10.432-12.131c18.034-15.508 42.616-24.049 69.216-24.049s51.182 8.541 69.216 24.049z" fill="#b2b1b4"/><ellipse cx="312" cy="336" fill="#b2b1b4" rx="56" ry="40"/><path d="m288 328h16v16h-16z" fill="#959494"/><path d="m320 328h16v16h-16z" fill="#959494"/><path d="m348 72h-72a146.945 146.945 0 0 1 4-16v-16h64v16a146.945 146.945 0 0 1 4 16z" fill="#343433"/><path d="m272 24h80v32h-80z" fill="#4e4e4f" transform="matrix(-1 0 0 -1 624 80)"/><path d="m233.6 488h-131.2a24 24 0 0 1 -23.943-22.349l-14.457-209.651h208l-14.459 209.651a24 24 0 0 1 -23.941 22.349z" fill="#e3e4e2"/><path d="m73.931 400h188.138l-2.089 30.3-35.98 25.7h-112l-35.98-25.7z" fill="#dc801f"/><path d="m224 400a56 56 0 0 1 -112 0z" fill="#b5691a"/><path d="m112 400a56 56 0 0 1 112 0z" fill="#c9c9c8"/></svg>