<svg height="512" viewBox="0 0 512 512" width="512" xmlns="http://www.w3.org/2000/svg"><path d="m242.626 193.75-19.5-13a16 16 0 0 1 -7.126-13.313v-23.437h-64v23.437a16 16 0 0 1 -7.125 13.313l-19.5 13a48 48 0 0 0 -21.375 39.939v246.311a16 16 0 0 0 16 16h128a16 16 0 0 0 16-16v-246.311a48 48 0 0 0 -21.374-39.939z" fill="#e13741"/><path d="m126 480h-12v-246.312a37.923 37.923 0 0 1 16.922-31.617l19.5-13a25.947 25.947 0 0 0 11.578-21.634v-23.437h12v23.437a37.923 37.923 0 0 1 -16.922 31.618l-19.5 13a25.946 25.946 0 0 0 -11.578 21.633z" fill="#ff555f"/><rect fill="#736969" height="32" rx="8" width="80" x="144" y="16"/><path d="m216 16h-40a8 8 0 0 1 8 8v16a8 8 0 0 1 -8 8h40a8 8 0 0 0 8-8v-16a8 8 0 0 0 -8-8z" fill="#3c413c"/><path d="m242.626 193.75-19.5-13a16 16 0 0 1 -7.126-13.313v-23.437h-32v336h-80a16 16 0 0 0 16 16h128a16 16 0 0 0 16-16v-246.311a48 48 0 0 0 -21.374-39.939z" fill="#aa2823"/><path d="m152 48h32v96h-32z" fill="#736969"/><path d="m184 48h32v96h-32z" fill="#3c413c"/><path d="m152 48h32v8h-32z" fill="#3c413c"/><path d="m104 269.333h80v133.333h-80z" fill="#d7e6f0"/><path d="m184 269.333h80v133.333h-80z" fill="#a5c3dc"/><path d="m114 269.333h12v133.334h-12z" fill="#fff"/><path d="m400 160h-96a8 8 0 0 0 -8 8v136a48 48 0 0 0 48 48v128h16v-128a48 48 0 0 0 48-48v-136a8 8 0 0 0 -8-8z" fill="#a5c3dc"/><path d="m304 160h48a0 0 0 0 1 0 0v140a28 28 0 0 1 -28 28 28 28 0 0 1 -28-28v-132a8 8 0 0 1 8-8z" fill="#d7e6f0"/><path d="m296 240v64a48 48 0 0 0 48 48h16a48 48 0 0 0 48-48v-64z" fill="#aa2823"/><path d="m296 240h56a0 0 0 0 1 0 0v60a28 28 0 0 1 -28 28 28 28 0 0 1 -28-28v-60a0 0 0 0 1 0 0z" fill="#e13741"/><path d="m344 352h16v18.667h-16z" fill="#87a5be"/><path d="m328 480h48a16 16 0 0 1 16 16 0 0 0 0 1 0 0h-80a0 0 0 0 1 0 0 16 16 0 0 1 16-16z" fill="#87a5be"/><rect fill="#fff" height="144" rx="8" width="16" x="312" y="168"/></svg>